<?xml version="1.0" standalone="no"?>
<!DOCTYPE svg PUBLIC "-//W3C//DTD SVG 20010904//EN"
 "http://www.w3.org/TR/2001/REC-SVG-20010904/DTD/svg10.dtd">
<svg version="1.0" xmlns="http://www.w3.org/2000/svg"
 width="2000.000000pt" height="1500.000000pt" viewBox="0 0 2000.000000 1500.000000"
 preserveAspectRatio="xMidYMid meet">

<g transform="translate(0.000000,1500.000000) scale(0.100000,-0.100000)"
fill="#000000" stroke="none">
<path d="M0 7500 l0 -7500 10000 0 10000 0 0 7500 0 7500 -10000 0 -10000 0 0
-7500z m12888 1713 l-3 -2888 -142 -3 -143 -3 0 -139 0 -140 -2885 0 -2885 0
0 2885 0 2885 140 0 140 0 0 145 0 145 2890 0 2890 0 -2 -2887z m1212 -3833
c522 -64 892 -430 1007 -995 15 -75 18 -138 18 -385 0 -267 -3 -305 -23 -396
-62 -286 -172 -495 -350 -666 -166 -159 -344 -251 -571 -293 -126 -23 -367
-20 -494 6 -233 47 -421 151 -587 325 -252 265 -368 642 -345 1129 16 357 100
621 270 846 242 322 642 482 1075 429z m-10410 -905 c151 -481 277 -875 281
-875 3 0 129 394 280 875 l274 875 458 0 457 0 0 -1345 0 -1345 -350 0 -350 0
0 263 c0 152 13 507 30 847 16 322 30 610 29 640 0 48 -36 -52 -300 -847
l-300 -903 -229 0 -229 0 -302 910 c-166 501 -303 909 -304 908 -1 -2 13 -286
31 -633 20 -383 33 -739 33 -907 l1 -278 -350 0 -350 0 0 1345 0 1345 458 0
457 0 275 -875z m4010 595 l0 -280 -590 0 -590 0 0 -240 0 -240 495 0 495 0 0
-270 0 -270 -495 0 -495 0 0 -275 0 -275 585 0 585 0 0 -280 0 -280 -935 0
-935 0 0 1345 0 1345 940 0 940 0 0 -280z m1305 269 c542 -75 945 -470 1039
-1019 53 -307 17 -682 -87 -928 -131 -308 -398 -558 -707 -662 -180 -61 -200
-63 -782 -67 l-538 -5 0 1346 0 1346 499 0 c300 0 530 -4 576 -11z m2715 -13
c388 -73 629 -258 697 -534 23 -94 23 -286 -1 -372 -42 -155 -140 -287 -263
-356 -29 -16 -53 -32 -53 -35 0 -3 17 -11 38 -17 56 -17 150 -81 205 -141 90
-96 147 -256 147 -411 0 -357 -172 -609 -491 -719 -208 -72 -319 -81 -1035
-81 l-594 0 0 1346 0 1345 628 -3 c550 -4 639 -6 722 -22z m5780 -256 l0 -280
-395 0 -395 0 -2 -1062 -3 -1063 -347 -3 -348 -2 0 1065 0 1065 -390 0 -390 0
0 280 0 280 1135 0 1135 0 0 -280z"/>
<path d="M9795 11553 c-163 -9 -348 -27 -470 -44 -184 -26 -488 -88 -502 -103
-6 -5 193 -795 202 -804 2 -2 54 8 117 22 309 69 508 90 853 91 327 0 494 -16
790 -76 104 -21 190 -37 192 -35 2 1 49 181 105 400 80 314 99 399 88 406 -19
11 -284 67 -430 90 -313 48 -681 69 -945 53z m305 -228 l0 -105 105 0 105 0 0
-100 0 -100 -105 0 -104 0 -3 -102 -3 -103 -95 0 -95 0 -3 103 -3 102 -104 0
-105 0 0 100 0 100 105 0 105 0 0 105 0 105 100 0 100 0 0 -105z"/>
<path d="M9711 10610 c-186 -15 -517 -67 -615 -96 -23 -8 -96 -159 -132 -279
-27 -85 -28 -100 -28 -285 0 -184 1 -200 27 -285 57 -187 135 -322 265 -457
210 -218 468 -328 772 -328 294 0 536 98 747 303 138 134 233 293 289 482 22
74 27 117 31 245 7 213 -22 350 -113 532 -30 59 -38 68 -71 77 -73 19 -309 60
-443 76 -161 19 -569 27 -729 15z"/>
<path d="M10735 8930 c-84 -13 -137 -30 -215 -71 -139 -73 -137 -70 -337 -486
-98 -205 -180 -373 -183 -373 -3 0 -86 169 -185 376 -173 360 -182 377 -230
416 -54 44 -191 114 -241 124 l-30 6 -32 -104 c-73 -233 -98 -423 -88 -663 6
-153 12 -203 36 -321 10 -48 14 -53 43 -60 75 -16 145 -72 185 -148 22 -43 27
-64 27 -131 0 -70 -4 -87 -30 -134 -55 -99 -142 -151 -255 -151 -113 0 -200
52 -255 151 -26 47 -30 64 -30 134 0 70 4 87 29 133 29 51 64 89 115 122 l23
15 -15 75 c-30 145 -40 281 -34 460 6 195 27 329 80 514 l34 116 -35 0 c-95 0
-297 -84 -388 -162 -321 -276 -493 -826 -511 -1635 l-6 -263 1793 0 1793 0 -6
258 c-22 934 -248 1532 -652 1727 -143 69 -127 93 -147 -215 l-17 -264 103
-106 c214 -222 353 -484 392 -745 32 -205 -13 -349 -121 -390 -85 -33 -260 0
-345 64 l-24 19 27 39 c15 21 35 49 45 62 l19 23 54 -27 c34 -18 76 -29 115
-33 l61 -5 13 53 c35 145 -45 420 -180 621 -52 78 -169 217 -216 259 l-35 30
-74 -50 c-251 -169 -467 -377 -556 -535 -31 -54 -34 -67 -34 -140 0 -139 42
-181 177 -178 l77 1 21 -70 c12 -39 19 -72 17 -75 -3 -2 -34 -9 -70 -14 -121
-19 -236 18 -306 97 -50 57 -71 117 -78 219 -5 69 -2 90 20 152 68 196 309
449 647 678 47 31 86 59 88 60 2 2 10 99 17 217 8 117 17 241 20 276 l6 62
-33 -1 c-18 -1 -55 -5 -83 -9z"/>
<path d="M13840 4810 c-147 -31 -265 -153 -323 -335 -47 -144 -68 -439 -48
-658 35 -381 165 -579 406 -618 197 -32 364 59 455 246 74 151 107 378 97 650
-8 179 -27 296 -66 404 -75 205 -202 307 -396 316 -44 2 -100 0 -125 -5z"/>
<path d="M8630 4005 l0 -785 113 0 c148 0 227 14 313 54 120 57 202 160 252
316 39 121 46 187 46 420 0 266 -17 369 -83 507 -94 196 -239 272 -518 273
l-123 0 0 -785z"/>
<path d="M11070 4520 l0 -270 205 0 c272 0 345 17 413 94 37 43 52 91 52 172
0 77 -22 142 -63 184 -67 69 -168 90 -431 90 l-176 0 0 -270z"/>
<path d="M11070 3496 l0 -276 223 0 c330 0 405 23 470 139 27 47 30 63 29 130
-1 128 -42 207 -128 251 -48 25 -54 25 -321 28 l-273 3 0 -275z"/>
</g>
</svg>
